<svg xmlns="http://www.w3.org/2000/svg" viewBox="0 0 512 512">
  <!-- Maçã estilizada vermelha com folha no topo -->
  <path d="M416 192c0-48-36-96-96-96-36 0-64 24-64 24s-28-24-64-24c-60 0-96 48-96 96 0 96 160 256 160 256s160-160 160-256z" fill="#e11d48" />
  <!-- Brilho na maçã -->
  <path d="M210 160c-25 0-45 20-45 45 0 5 4 9 9 9s9-4 9-9c0-15 12-27 27-27 5 0 9-4 9-9s-4-9-9-9z" fill="#ffffff" opacity="0.4" />
  <!-- Haste e Folha -->
  <path d="M256 106V64c0-8.8 7.2-16 16-16h48c26.5 0 48 21.5 48 48s-21.5 48-48 48H256z" fill="#be123c" opacity="0.8" />
  <path d="M320 96c0-26.5-21.5-48-48-48h-16v48h64z" fill="#fda4af" />
</svg>